<mxfile host="app.diagrams.net" modified="2023-10-01T08:53:56.931Z" agent="Mozilla/5.0 (Windows NT 10.0; Win64; x64) AppleWebKit/537.36 (KHTML, like Gecko) Chrome/117.0.0.0 Safari/537.36 Edg/117.0.2045.43" etag="3K9fr77oasFfMK4JcX3-" version="22.0.0" type="device">
  <diagram name="Página-1" id="HGs2PL4lyGVnYACucPMu">
    <mxGraphModel dx="945" dy="775" grid="1" gridSize="10" guides="1" tooltips="1" connect="1" arrows="1" fold="1" page="1" pageScale="1" pageWidth="827" pageHeight="1169" math="0" shadow="0">
      <root>
        <mxCell id="0" />
        <mxCell id="1" parent="0" />
        <mxCell id="yDCbcyeOfy16JwG3UbrM-4" value="" style="edgeStyle=orthogonalEdgeStyle;rounded=0;orthogonalLoop=1;jettySize=auto;html=1;" edge="1" parent="1" source="yDCbcyeOfy16JwG3UbrM-2">
          <mxGeometry relative="1" as="geometry">
            <mxPoint x="375" y="190" as="targetPoint" />
          </mxGeometry>
        </mxCell>
        <mxCell id="yDCbcyeOfy16JwG3UbrM-2" value="&lt;font style=&quot;font-size: 23px;&quot;&gt;0&lt;/font&gt;" style="rounded=0;whiteSpace=wrap;html=1;" vertex="1" parent="1">
          <mxGeometry x="340" y="60" width="70" height="50" as="geometry" />
        </mxCell>
        <mxCell id="yDCbcyeOfy16JwG3UbrM-5" value="&lt;font style=&quot;font-size: 19px;&quot;&gt;↑S4&lt;/font&gt;" style="text;html=1;align=center;verticalAlign=middle;resizable=0;points=[];autosize=1;strokeColor=none;fillColor=none;" vertex="1" parent="1">
          <mxGeometry x="370" y="130" width="60" height="40" as="geometry" />
        </mxCell>
        <mxCell id="yDCbcyeOfy16JwG3UbrM-10" value="" style="edgeStyle=orthogonalEdgeStyle;rounded=0;orthogonalLoop=1;jettySize=auto;html=1;" edge="1" parent="1" source="yDCbcyeOfy16JwG3UbrM-13" target="yDCbcyeOfy16JwG3UbrM-15">
          <mxGeometry relative="1" as="geometry" />
        </mxCell>
        <mxCell id="yDCbcyeOfy16JwG3UbrM-29" value="" style="edgeStyle=orthogonalEdgeStyle;rounded=0;orthogonalLoop=1;jettySize=auto;html=1;" edge="1" parent="1" source="yDCbcyeOfy16JwG3UbrM-13" target="yDCbcyeOfy16JwG3UbrM-28">
          <mxGeometry relative="1" as="geometry" />
        </mxCell>
        <mxCell id="yDCbcyeOfy16JwG3UbrM-13" value="&lt;font style=&quot;font-size: 23px;&quot;&gt;1&lt;/font&gt;" style="rounded=0;whiteSpace=wrap;html=1;" vertex="1" parent="1">
          <mxGeometry x="340" y="190" width="70" height="50" as="geometry" />
        </mxCell>
        <mxCell id="yDCbcyeOfy16JwG3UbrM-14" value="&lt;font style=&quot;font-size: 23px;&quot;&gt;S&lt;/font&gt;" style="rounded=0;whiteSpace=wrap;html=1;" vertex="1" parent="1">
          <mxGeometry x="470" y="190" width="30" height="50" as="geometry" />
        </mxCell>
        <mxCell id="yDCbcyeOfy16JwG3UbrM-15" value="Motor2(Q0.1)" style="rounded=0;whiteSpace=wrap;html=1;" vertex="1" parent="1">
          <mxGeometry x="500" y="190" width="120" height="50" as="geometry" />
        </mxCell>
        <mxCell id="yDCbcyeOfy16JwG3UbrM-36" style="edgeStyle=orthogonalEdgeStyle;rounded=0;orthogonalLoop=1;jettySize=auto;html=1;exitX=0.5;exitY=1;exitDx=0;exitDy=0;entryX=0.5;entryY=0;entryDx=0;entryDy=0;" edge="1" parent="1" source="yDCbcyeOfy16JwG3UbrM-28" target="yDCbcyeOfy16JwG3UbrM-34">
          <mxGeometry relative="1" as="geometry" />
        </mxCell>
        <mxCell id="yDCbcyeOfy16JwG3UbrM-38" value="" style="edgeStyle=orthogonalEdgeStyle;rounded=0;orthogonalLoop=1;jettySize=auto;html=1;" edge="1" parent="1" source="yDCbcyeOfy16JwG3UbrM-28" target="yDCbcyeOfy16JwG3UbrM-37">
          <mxGeometry relative="1" as="geometry">
            <Array as="points">
              <mxPoint x="375" y="400" />
              <mxPoint x="515" y="400" />
            </Array>
          </mxGeometry>
        </mxCell>
        <mxCell id="yDCbcyeOfy16JwG3UbrM-28" value="&lt;font style=&quot;font-size: 23px;&quot;&gt;2&lt;/font&gt;" style="rounded=0;whiteSpace=wrap;html=1;" vertex="1" parent="1">
          <mxGeometry x="340" y="320" width="70" height="50" as="geometry" />
        </mxCell>
        <mxCell id="yDCbcyeOfy16JwG3UbrM-30" value="&lt;font style=&quot;font-size: 19px;&quot;&gt;↑S5&lt;/font&gt;" style="text;html=1;align=center;verticalAlign=middle;resizable=0;points=[];autosize=1;strokeColor=none;fillColor=none;" vertex="1" parent="1">
          <mxGeometry x="370" y="260" width="60" height="40" as="geometry" />
        </mxCell>
        <mxCell id="yDCbcyeOfy16JwG3UbrM-33" value="&lt;font style=&quot;font-size: 17px;&quot;&gt;Caixa Grande ou&lt;br&gt;Caixa Média&lt;br&gt;&lt;/font&gt;" style="text;html=1;align=center;verticalAlign=middle;resizable=0;points=[];autosize=1;strokeColor=none;fillColor=none;" vertex="1" parent="1">
          <mxGeometry x="220" y="450" width="150" height="50" as="geometry" />
        </mxCell>
        <mxCell id="yDCbcyeOfy16JwG3UbrM-49" value="" style="edgeStyle=orthogonalEdgeStyle;rounded=0;orthogonalLoop=1;jettySize=auto;html=1;dashed=1;" edge="1" parent="1" source="yDCbcyeOfy16JwG3UbrM-34" target="yDCbcyeOfy16JwG3UbrM-48">
          <mxGeometry relative="1" as="geometry" />
        </mxCell>
        <mxCell id="yDCbcyeOfy16JwG3UbrM-34" value="&lt;font style=&quot;font-size: 23px;&quot;&gt;3&lt;/font&gt;" style="rounded=0;whiteSpace=wrap;html=1;" vertex="1" parent="1">
          <mxGeometry x="340" y="580" width="70" height="50" as="geometry" />
        </mxCell>
        <mxCell id="yDCbcyeOfy16JwG3UbrM-47" style="edgeStyle=orthogonalEdgeStyle;rounded=0;orthogonalLoop=1;jettySize=auto;html=1;exitX=0.5;exitY=1;exitDx=0;exitDy=0;entryX=0;entryY=0.5;entryDx=0;entryDy=0;" edge="1" parent="1" source="yDCbcyeOfy16JwG3UbrM-37" target="yDCbcyeOfy16JwG3UbrM-2">
          <mxGeometry relative="1" as="geometry">
            <Array as="points">
              <mxPoint x="515" y="690" />
              <mxPoint x="200" y="690" />
              <mxPoint x="200" y="85" />
            </Array>
          </mxGeometry>
        </mxCell>
        <mxCell id="yDCbcyeOfy16JwG3UbrM-37" value="&lt;font style=&quot;font-size: 23px;&quot;&gt;2&lt;/font&gt;" style="rounded=0;whiteSpace=wrap;html=1;" vertex="1" parent="1">
          <mxGeometry x="480" y="580" width="70" height="50" as="geometry" />
        </mxCell>
        <mxCell id="yDCbcyeOfy16JwG3UbrM-39" value="&lt;font style=&quot;font-size: 17px;&quot;&gt;NOT (Caixa Grande &lt;br&gt;ou Caixa Média)&lt;br&gt;&lt;/font&gt;" style="text;html=1;align=center;verticalAlign=middle;resizable=0;points=[];autosize=1;strokeColor=none;fillColor=none;" vertex="1" parent="1">
          <mxGeometry x="520" y="450" width="170" height="50" as="geometry" />
        </mxCell>
        <mxCell id="yDCbcyeOfy16JwG3UbrM-40" value="" style="edgeStyle=orthogonalEdgeStyle;rounded=0;orthogonalLoop=1;jettySize=auto;html=1;" edge="1" parent="1" target="yDCbcyeOfy16JwG3UbrM-42">
          <mxGeometry relative="1" as="geometry">
            <mxPoint x="550" y="605" as="sourcePoint" />
          </mxGeometry>
        </mxCell>
        <mxCell id="yDCbcyeOfy16JwG3UbrM-41" value="&lt;font style=&quot;font-size: 23px;&quot;&gt;R&lt;/font&gt;" style="rounded=0;whiteSpace=wrap;html=1;" vertex="1" parent="1">
          <mxGeometry x="610" y="580" width="30" height="50" as="geometry" />
        </mxCell>
        <mxCell id="yDCbcyeOfy16JwG3UbrM-46" value="" style="edgeStyle=orthogonalEdgeStyle;rounded=0;orthogonalLoop=1;jettySize=auto;html=1;endArrow=none;endFill=0;" edge="1" parent="1" source="yDCbcyeOfy16JwG3UbrM-42" target="yDCbcyeOfy16JwG3UbrM-45">
          <mxGeometry relative="1" as="geometry" />
        </mxCell>
        <mxCell id="yDCbcyeOfy16JwG3UbrM-42" value="Motor2(Q0.1)" style="rounded=0;whiteSpace=wrap;html=1;" vertex="1" parent="1">
          <mxGeometry x="640" y="580" width="120" height="50" as="geometry" />
        </mxCell>
        <mxCell id="yDCbcyeOfy16JwG3UbrM-45" value="Válvula V1/Timer" style="rounded=0;whiteSpace=wrap;html=1;" vertex="1" parent="1">
          <mxGeometry x="840" y="580" width="120" height="50" as="geometry" />
        </mxCell>
        <mxCell id="yDCbcyeOfy16JwG3UbrM-48" value="&lt;font style=&quot;font-size: 23px;&quot;&gt;4&lt;/font&gt;" style="rounded=0;whiteSpace=wrap;html=1;" vertex="1" parent="1">
          <mxGeometry x="340" y="790" width="70" height="50" as="geometry" />
        </mxCell>
        <mxCell id="yDCbcyeOfy16JwG3UbrM-50" value="&lt;font style=&quot;font-size: 19px;&quot;&gt;↑S6&lt;/font&gt;" style="text;html=1;align=center;verticalAlign=middle;resizable=0;points=[];autosize=1;strokeColor=none;fillColor=none;" vertex="1" parent="1">
          <mxGeometry x="370" y="720" width="60" height="40" as="geometry" />
        </mxCell>
        <mxCell id="yDCbcyeOfy16JwG3UbrM-51" style="edgeStyle=orthogonalEdgeStyle;rounded=0;orthogonalLoop=1;jettySize=auto;html=1;exitX=0.5;exitY=1;exitDx=0;exitDy=0;entryX=0.5;entryY=0;entryDx=0;entryDy=0;dashed=1;" edge="1" parent="1" target="yDCbcyeOfy16JwG3UbrM-54">
          <mxGeometry relative="1" as="geometry">
            <mxPoint x="375" y="840" as="sourcePoint" />
          </mxGeometry>
        </mxCell>
        <mxCell id="yDCbcyeOfy16JwG3UbrM-52" value="" style="edgeStyle=orthogonalEdgeStyle;rounded=0;orthogonalLoop=1;jettySize=auto;html=1;" edge="1" parent="1" target="yDCbcyeOfy16JwG3UbrM-55">
          <mxGeometry relative="1" as="geometry">
            <mxPoint x="375" y="840" as="sourcePoint" />
            <Array as="points">
              <mxPoint x="375" y="870" />
              <mxPoint x="515" y="870" />
            </Array>
          </mxGeometry>
        </mxCell>
        <mxCell id="yDCbcyeOfy16JwG3UbrM-53" value="&lt;font style=&quot;font-size: 17px;&quot;&gt;Caixa Grande&amp;nbsp;&lt;br&gt;&lt;/font&gt;" style="text;html=1;align=center;verticalAlign=middle;resizable=0;points=[];autosize=1;strokeColor=none;fillColor=none;" vertex="1" parent="1">
          <mxGeometry x="240" y="930" width="130" height="30" as="geometry" />
        </mxCell>
        <mxCell id="yDCbcyeOfy16JwG3UbrM-69" value="" style="edgeStyle=orthogonalEdgeStyle;rounded=0;orthogonalLoop=1;jettySize=auto;html=1;" edge="1" parent="1" source="yDCbcyeOfy16JwG3UbrM-54" target="yDCbcyeOfy16JwG3UbrM-68">
          <mxGeometry relative="1" as="geometry" />
        </mxCell>
        <mxCell id="yDCbcyeOfy16JwG3UbrM-54" value="&lt;font style=&quot;font-size: 23px;&quot;&gt;6&lt;/font&gt;" style="rounded=0;whiteSpace=wrap;html=1;" vertex="1" parent="1">
          <mxGeometry x="340" y="1190" width="70" height="50" as="geometry" />
        </mxCell>
        <mxCell id="yDCbcyeOfy16JwG3UbrM-62" style="edgeStyle=orthogonalEdgeStyle;rounded=0;orthogonalLoop=1;jettySize=auto;html=1;exitX=0.5;exitY=1;exitDx=0;exitDy=0;endArrow=none;endFill=0;" edge="1" parent="1" source="yDCbcyeOfy16JwG3UbrM-55">
          <mxGeometry relative="1" as="geometry">
            <mxPoint x="200" y="680" as="targetPoint" />
            <mxPoint x="425" y="1100" as="sourcePoint" />
            <Array as="points">
              <mxPoint x="510" y="1100" />
              <mxPoint x="510" y="1140" />
              <mxPoint x="200" y="1140" />
            </Array>
          </mxGeometry>
        </mxCell>
        <mxCell id="yDCbcyeOfy16JwG3UbrM-55" value="&lt;font style=&quot;font-size: 23px;&quot;&gt;5&lt;/font&gt;" style="rounded=0;whiteSpace=wrap;html=1;" vertex="1" parent="1">
          <mxGeometry x="480" y="1050" width="70" height="50" as="geometry" />
        </mxCell>
        <mxCell id="yDCbcyeOfy16JwG3UbrM-56" value="&lt;font style=&quot;font-size: 17px;&quot;&gt;NOT (Caixa Grande)&lt;br&gt;&lt;/font&gt;" style="text;html=1;align=center;verticalAlign=middle;resizable=0;points=[];autosize=1;strokeColor=none;fillColor=none;" vertex="1" parent="1">
          <mxGeometry x="515" y="930" width="180" height="30" as="geometry" />
        </mxCell>
        <mxCell id="yDCbcyeOfy16JwG3UbrM-57" value="" style="edgeStyle=orthogonalEdgeStyle;rounded=0;orthogonalLoop=1;jettySize=auto;html=1;" edge="1" parent="1" target="yDCbcyeOfy16JwG3UbrM-60">
          <mxGeometry relative="1" as="geometry">
            <mxPoint x="550" y="1075" as="sourcePoint" />
          </mxGeometry>
        </mxCell>
        <mxCell id="yDCbcyeOfy16JwG3UbrM-58" value="&lt;font style=&quot;font-size: 23px;&quot;&gt;R&lt;/font&gt;" style="rounded=0;whiteSpace=wrap;html=1;" vertex="1" parent="1">
          <mxGeometry x="610" y="1050" width="30" height="50" as="geometry" />
        </mxCell>
        <mxCell id="yDCbcyeOfy16JwG3UbrM-59" value="" style="edgeStyle=orthogonalEdgeStyle;rounded=0;orthogonalLoop=1;jettySize=auto;html=1;endArrow=none;endFill=0;" edge="1" parent="1" source="yDCbcyeOfy16JwG3UbrM-60" target="yDCbcyeOfy16JwG3UbrM-61">
          <mxGeometry relative="1" as="geometry" />
        </mxCell>
        <mxCell id="yDCbcyeOfy16JwG3UbrM-60" value="Motor2(Q0.1)" style="rounded=0;whiteSpace=wrap;html=1;" vertex="1" parent="1">
          <mxGeometry x="640" y="1050" width="120" height="50" as="geometry" />
        </mxCell>
        <mxCell id="yDCbcyeOfy16JwG3UbrM-61" value="Válvula V2" style="rounded=0;whiteSpace=wrap;html=1;" vertex="1" parent="1">
          <mxGeometry x="840" y="1050" width="120" height="50" as="geometry" />
        </mxCell>
        <mxCell id="yDCbcyeOfy16JwG3UbrM-65" value="" style="edgeStyle=orthogonalEdgeStyle;rounded=0;orthogonalLoop=1;jettySize=auto;html=1;" edge="1" parent="1" target="yDCbcyeOfy16JwG3UbrM-67">
          <mxGeometry relative="1" as="geometry">
            <mxPoint x="410" y="1215" as="sourcePoint" />
          </mxGeometry>
        </mxCell>
        <mxCell id="yDCbcyeOfy16JwG3UbrM-66" value="&lt;font style=&quot;font-size: 23px;&quot;&gt;R&lt;/font&gt;" style="rounded=0;whiteSpace=wrap;html=1;" vertex="1" parent="1">
          <mxGeometry x="470" y="1190" width="30" height="50" as="geometry" />
        </mxCell>
        <mxCell id="yDCbcyeOfy16JwG3UbrM-67" value="Motor2(Q0.1)" style="rounded=0;whiteSpace=wrap;html=1;" vertex="1" parent="1">
          <mxGeometry x="500" y="1190" width="120" height="50" as="geometry" />
        </mxCell>
        <mxCell id="yDCbcyeOfy16JwG3UbrM-74" style="edgeStyle=orthogonalEdgeStyle;rounded=0;orthogonalLoop=1;jettySize=auto;html=1;exitX=0.5;exitY=1;exitDx=0;exitDy=0;endArrow=none;endFill=0;" edge="1" parent="1" source="yDCbcyeOfy16JwG3UbrM-68">
          <mxGeometry relative="1" as="geometry">
            <mxPoint x="200" y="1120" as="targetPoint" />
            <Array as="points">
              <mxPoint x="375" y="1420" />
              <mxPoint x="201" y="1420" />
            </Array>
          </mxGeometry>
        </mxCell>
        <mxCell id="yDCbcyeOfy16JwG3UbrM-68" value="&lt;font style=&quot;font-size: 23px;&quot;&gt;6&lt;/font&gt;" style="rounded=0;whiteSpace=wrap;html=1;" vertex="1" parent="1">
          <mxGeometry x="340" y="1320" width="70" height="50" as="geometry" />
        </mxCell>
        <mxCell id="yDCbcyeOfy16JwG3UbrM-70" value="&lt;font style=&quot;font-size: 19px;&quot;&gt;NOT S7&lt;/font&gt;" style="text;html=1;align=center;verticalAlign=middle;resizable=0;points=[];autosize=1;strokeColor=none;fillColor=none;" vertex="1" parent="1">
          <mxGeometry x="365" y="1260" width="90" height="40" as="geometry" />
        </mxCell>
        <mxCell id="yDCbcyeOfy16JwG3UbrM-71" value="" style="edgeStyle=orthogonalEdgeStyle;rounded=0;orthogonalLoop=1;jettySize=auto;html=1;" edge="1" parent="1" target="yDCbcyeOfy16JwG3UbrM-73">
          <mxGeometry relative="1" as="geometry">
            <mxPoint x="414" y="1345" as="sourcePoint" />
          </mxGeometry>
        </mxCell>
        <mxCell id="yDCbcyeOfy16JwG3UbrM-72" value="&lt;font style=&quot;font-size: 23px;&quot;&gt;S&lt;/font&gt;" style="rounded=0;whiteSpace=wrap;html=1;" vertex="1" parent="1">
          <mxGeometry x="474" y="1320" width="30" height="50" as="geometry" />
        </mxCell>
        <mxCell id="yDCbcyeOfy16JwG3UbrM-73" value="Motor2(Q0.1)" style="rounded=0;whiteSpace=wrap;html=1;" vertex="1" parent="1">
          <mxGeometry x="504" y="1320" width="120" height="50" as="geometry" />
        </mxCell>
        <mxCell id="yDCbcyeOfy16JwG3UbrM-75" value="&lt;font style=&quot;font-size: 19px;&quot;&gt;Timer&lt;/font&gt;" style="text;html=1;align=center;verticalAlign=middle;resizable=0;points=[];autosize=1;strokeColor=none;fillColor=none;" vertex="1" parent="1">
          <mxGeometry x="515" y="630" width="70" height="40" as="geometry" />
        </mxCell>
        <mxCell id="yDCbcyeOfy16JwG3UbrM-76" value="&lt;font style=&quot;font-size: 19px;&quot;&gt;Timer&lt;/font&gt;" style="text;html=1;align=center;verticalAlign=middle;resizable=0;points=[];autosize=1;strokeColor=none;fillColor=none;" vertex="1" parent="1">
          <mxGeometry x="504" y="1100" width="70" height="40" as="geometry" />
        </mxCell>
        <mxCell id="yDCbcyeOfy16JwG3UbrM-77" value="&lt;font style=&quot;font-size: 19px;&quot;&gt;↑S7&lt;/font&gt;" style="text;html=1;align=center;verticalAlign=middle;resizable=0;points=[];autosize=1;strokeColor=none;fillColor=none;" vertex="1" parent="1">
          <mxGeometry x="365" y="1370" width="60" height="40" as="geometry" />
        </mxCell>
      </root>
    </mxGraphModel>
  </diagram>
</mxfile>
